<svg xmlns="http://www.w3.org/2000/svg" width="980" height="620" viewBox="0 0 980 620" role="img" aria-label="One conversation, either tool: a wall card for a Claude session named Aurora with its action menu open on “Continue in Codex…”; an arrow carrying the extracted transcript to a new terminal window where Codex reads the handoff and picks the work up; the new session is filed in the same folder, beside its source. A legend explains fork, hand-off, and filing.">
  <defs>
    <linearGradient id="canvasH" x1="0" y1="0" x2="0" y2="1">
      <stop offset="0" stop-color="#16171c"/>
      <stop offset="1" stop-color="#101116"/>
    </linearGradient>
    <filter id="shadowH" x="-20%" y="-20%" width="140%" height="160%">
      <feDropShadow dx="0" dy="6" stdDeviation="14" flood-color="#000000" flood-opacity="0.45"/>
    </filter>
    <clipPath id="cardWall"><rect x="40" y="78" width="404" height="318" rx="10"/></clipPath>
    <clipPath id="winCodex"><rect x="536" y="78" width="404" height="318" rx="10"/></clipPath>
    <marker id="arrowHead" viewBox="0 0 10 10" refX="9" refY="5" markerWidth="8" markerHeight="8" orient="auto-start-reverse">
      <path d="M0 0L10 5L0 10z" fill="#8b6ef0"/>
    </marker>
  </defs>

  <!-- canvas -->
  <rect x="0.5" y="0.5" width="979" height="619" rx="18" fill="url(#canvasH)" stroke="#272831"/>

  <!-- kicker -->
  <text x="490" y="44" text-anchor="middle" font-family="ui-monospace, SFMono-Regular, Menlo, Consolas, monospace" font-size="12.5" letter-spacing="0.14em" fill="#8d909b">ONE CONVERSATION, EITHER TOOL — FORK IT, OR HAND IT ACROSS</text>

  <!-- ═══════════ ① the wall card, menu open ═══════════ -->
  <g filter="url(#shadowH)">
    <rect x="40" y="78" width="404" height="318" rx="10" fill="#17181d" stroke="#2e3038"/>
  </g>
  <g clip-path="url(#cardWall)" font-family="ui-monospace, SFMono-Regular, Menlo, Consolas, monospace" font-size="11.5">
    <!-- card head -->
    <circle cx="60" cy="100" r="4" fill="#3fb950"/>
    <text x="72" y="104.5" fill="#e6e6e9" font-size="13" font-weight="700">Aurora</text>
    <rect x="130" y="92" width="50" height="16" rx="8" fill="#2a2540" stroke="#4c3f8a"/>
    <text x="155" y="103.5" text-anchor="middle" fill="#a78bfa" font-size="10">claude</text>
    <rect x="398" y="91" width="30" height="18" rx="6" fill="#26272f" stroke="#3a3b45"/>
    <text x="413" y="104" text-anchor="middle" fill="#e6e6e9" font-size="12">⋯</text>
    <!-- tagline -->
    <text x="60" y="126" fill="#93939b" font-size="11">Warm-start the S2 run from the S1 checkpoint</text>
    <!-- tile preview -->
    <rect x="56" y="140" width="242" height="236" rx="6" fill="#101116" stroke="#26272f"/>
    <g fill="#c9cad3" font-size="10.5">
      <text x="66" y="160"><tspan fill="#3fb950">●</tspan> Read <tspan fill="#8d909b">train/warm_start.py</tspan></text>
      <text x="66" y="176" fill="#8d909b">  ⎿  212 lines</text>
      <text x="66" y="198"><tspan fill="#a78bfa">✻</tspan> Thinking…</text>
      <text x="66" y="216">  The S1 checkpoint keeps all four</text>
      <text x="66" y="230">  modes; init S2 from it and keep</text>
      <text x="66" y="244">  the productivity curves.</text>
      <text x="66" y="266"><tspan fill="#3fb950">●</tspan> Bash <tspan fill="#8d909b">sbatch s2_warm.slurm</tspan></text>
      <text x="66" y="282" fill="#8d909b">  ⎿  Submitted batch job 15175672</text>
      <text x="66" y="304">  Both runs target 100k S2 steps</text>
      <text x="66" y="318">  with periodic VALID AP checks.</text>
      <text x="66" y="346" fill="#8d909b">❯ <tspan fill="#a78bfa">▌</tspan></text>
    </g>
    <!-- the action sheet -->
    <g filter="url(#shadowH)">
      <rect x="248" y="114" width="180" height="176" rx="9" fill="#1d1d24" stroke="#33343e"/>
    </g>
    <g font-size="11.5">
      <text x="262" y="138" fill="#e6e6e9">Open full screen</text>
      <text x="262" y="164" fill="#e6e6e9">Fork</text>
      <text x="386" y="164" fill="#6e6e73" font-size="10">⌥⏎</text>
      <rect x="254" y="174" width="168" height="24" rx="6" fill="#2a2540"/>
      <text x="262" y="190" fill="#c4b5fd" font-weight="700">Continue in Codex…</text>
      <text x="262" y="218" fill="#e6e6e9">Move to folder…</text>
      <text x="262" y="244" fill="#e6e6e9">Rename</text>
      <text x="262" y="270" fill="#8d909b">Hide</text>
    </g>
    <!-- card foot -->
    <rect x="40" y="366" width="404" height="30" fill="#141519"/>
    <text x="60" y="385" fill="#8d909b" font-size="10.5">~/code/accessibility</text>
    <rect x="322" y="373" width="64" height="16" rx="8" fill="#22222b" stroke="#33343e"/>
    <text x="354" y="384.5" text-anchor="middle" fill="#8d909b" font-size="10">Research</text>
    <text x="428" y="385" text-anchor="end" fill="#8d909b" font-size="10.5">2m ago</text>
  </g>

  <!-- ═══════════ the hand-off: extract travels across ═══════════ -->
  <path d="M446 236 C 480 236, 490 236, 528 236" stroke="#8b6ef0" stroke-width="2" fill="none" marker-end="url(#arrowHead)"/>
  <g font-family="ui-monospace, SFMono-Regular, Menlo, Consolas, monospace">
    <rect x="452" y="248" width="76" height="40" rx="6" fill="#1d1d24" stroke="#4c3f8a"/>
    <text x="490" y="264" text-anchor="middle" fill="#c4b5fd" font-size="9.5">340 turns</text>
    <text x="490" y="278" text-anchor="middle" fill="#8d909b" font-size="9.5">768 KB · .md</text>
  </g>

  <!-- ═══════════ ② the new codex session ═══════════ -->
  <g filter="url(#shadowH)">
    <rect x="536" y="78" width="404" height="318" rx="10" fill="#17181d" stroke="#2e3038"/>
  </g>
  <g clip-path="url(#winCodex)" font-family="ui-monospace, SFMono-Regular, Menlo, Consolas, monospace" font-size="11.5">
    <rect x="536" y="78" width="404" height="30" fill="#1f2026"/>
    <circle cx="556" cy="93" r="5" fill="#ff5f57"/>
    <circle cx="572" cy="93" r="5" fill="#febc2e"/>
    <circle cx="588" cy="93" r="5" fill="#28c840"/>
    <text x="738" y="97" text-anchor="middle" fill="#8d909b" font-size="11" font-family="-apple-system, 'Segoe UI', sans-serif">Aurora-codex — codex</text>
    <!-- the prompt codex was started with -->
    <rect x="552" y="120" width="372" height="62" rx="6" fill="#101116" stroke="#26272f"/>
    <text x="562" y="138" fill="#8d909b" font-size="10.5">› Read the ENTIRE file handoff-from-Aurora.md</text>
    <text x="562" y="153" fill="#8d909b" font-size="10.5">  (768 KB) start to finish — it is a previous claude</text>
    <text x="562" y="168" fill="#8d909b" font-size="10.5">  conversation. Summarize it, then ask what's next.</text>
    <!-- codex reading and answering -->
    <g fill="#c9cad3" font-size="10.5">
      <text x="562" y="204"><tspan fill="#3fb950">•</tspan> Read <tspan fill="#8d909b">340 turns · Sep 5 → Sep 17</tspan></text>
      <text x="562" y="226" fill="#e6e6e9" font-weight="700">Where we were</text>
      <text x="562" y="242">Two S2 runs queued: from scratch, and warm-</text>
      <text x="562" y="256">started from the 100k S1 checkpoint. VALID AP</text>
      <text x="562" y="270">every 5k steps; auto-resume on preemption.</text>
      <text x="562" y="292" fill="#e6e6e9" font-weight="700">Open question</text>
      <text x="562" y="308">Is Modern U50 the best S1 to warm-start from?</text>
      <text x="562" y="338" fill="#8d909b">› <tspan fill="#a78bfa">▌</tspan></text>
    </g>
    <!-- footer: filed beside its source -->
    <rect x="536" y="366" width="404" height="30" fill="#141519"/>
    <rect x="550" y="372" width="86" height="18" rx="4" fill="#7c3aed"/>
    <text x="593" y="385" text-anchor="middle" fill="#ffffff" font-size="10.5" font-weight="700">Aurora-codex</text>
    <text x="646" y="385" fill="#8d909b" font-size="10.5">~/code/accessibility</text>
    <rect x="818" y="373" width="64" height="16" rx="8" fill="#22222b" stroke="#33343e"/>
    <text x="850" y="384.5" text-anchor="middle" fill="#8d909b" font-size="10">Research</text>
    <text x="926" y="385" text-anchor="end" fill="#8d909b" font-size="10.5">codex</text>
  </g>

  <!-- numbered badges -->
  <g font-family="-apple-system, 'Segoe UI', sans-serif" font-size="12" font-weight="700" fill="#ffffff">
    <circle cx="40" cy="78" r="12" fill="#8b6ef0"/><text x="40" y="82.5" text-anchor="middle">1</text>
    <circle cx="536" cy="78" r="12" fill="#8b6ef0"/><text x="536" y="82.5" text-anchor="middle">2</text>
    <circle cx="940" cy="396" r="12" fill="#8b6ef0"/><text x="940" y="400.5" text-anchor="middle">3</text>
  </g>

  <!-- legend -->
  <g font-family="-apple-system, 'Segoe UI', sans-serif" font-size="14">
    <circle cx="70" cy="452" r="11" fill="#8b6ef0"/><text x="70" y="456.5" text-anchor="middle" fill="#ffffff" font-size="12" font-weight="700">1</text>
    <text x="94" y="457" fill="#e6e6e9"><tspan font-weight="700">Fork</tspan><tspan fill="#93939b"> — the same tool resumes the same conversation in a new session. Claude and Codex alike.</tspan></text>

    <circle cx="70" cy="490" r="11" fill="#8b6ef0"/><text x="70" y="494.5" text-anchor="middle" fill="#ffffff" font-size="12" font-weight="700">2</text>
    <text x="94" y="495" fill="#e6e6e9"><tspan font-weight="700">Hand off</tspan><tspan fill="#93939b"> — the transcript is extracted to a file; the other tool reads all of it before it says a word.</tspan></text>

    <circle cx="70" cy="528" r="11" fill="#8b6ef0"/><text x="70" y="532.5" text-anchor="middle" fill="#ffffff" font-size="12" font-weight="700">3</text>
    <text x="94" y="533" fill="#e6e6e9"><tspan font-weight="700">Filed beside its source</tspan><tspan fill="#93939b"> — same folder, same directory, labelled by what it runs. Nothing to tidy afterwards.</tspan></text>

    <text x="490" y="586" text-anchor="middle" fill="#6e6e73" font-family="ui-monospace, SFMono-Regular, Menlo, Consolas, monospace" font-size="11">wall card ⋯ → Fork · Continue in Codex… · Continue in Claude…&#160;&#160;·&#160;&#160;POST /api/sessions/fork {name, target?}</text>
  </g>
</svg>
